<svg height="511pt" viewBox="0 -11 511.99803 511" width="511pt" xmlns="http://www.w3.org/2000/svg"><path d="m499.1875 206.539062c10.816406-10.546874 4.847656-28.917968-10.101562-31.089843l-140.28125-20.382813c-5.9375-.863281-11.070313-4.59375-13.722657-9.972656l-62.738281-127.117188c-6.683594-13.546874-26-13.546874-32.6875 0l-62.734375 127.117188c-2.65625 5.378906-7.789063 9.109375-13.722656 9.972656l-140.285157 20.382813c-14.953124 2.171875-20.921874 20.542969-10.101562 31.089843l101.511719 98.945313c4.292969 4.1875 6.253906 10.222656 5.238281 16.132813l-23.960938 139.71875c-2.554687 14.886718 13.074219 26.242187 26.445313 19.210937l125.472656-65.964844c5.308594-2.789062 11.652344-2.789062 16.960938 0l125.472656 65.964844c13.371094 7.03125 29-4.324219 26.445313-19.210937l-23.964844-139.71875c-1.011719-5.910157.945312-11.945313 5.242187-16.132813zm0 0" fill="#fedd60"/><path d="m486.863281 297.628906c0 44.957032-36.445312 81.402344-81.402343 81.402344-44.957032 0-81.402344-36.445312-81.402344-81.402344 0-44.960937 36.445312-81.402344 81.402344-81.402344 44.957031 0 81.402343 36.441407 81.402343 81.402344zm0 0" fill="#94dc7e"/><path d="m425.476562 359.011719c-44.957031 0-81.402343-36.445313-81.402343-81.402344 0-17.363281 5.457031-33.449219 14.722656-46.664063-20.996094 14.722657-34.738281 39.089844-34.738281 66.683594 0 44.957032 36.445312 81.402344 81.402344 81.402344 27.589843 0 51.960937-13.742188 66.683593-34.738281-13.21875 9.265625-29.300781 14.71875-46.667969 14.71875zm0 0" fill="#80c56e"/><path d="m175.90625 195.203125v13.136719c0 4.148437 3.359375 7.507812 7.503906 7.507812 4.148438 0 7.507813-3.359375 7.507813-7.507812v-13.136719c0-4.144531-3.359375-7.503906-7.507813-7.503906-4.144531 0-7.503906 3.359375-7.503906 7.503906zm0 0"/><path d="m336.101562 208.34375v-13.140625c0-4.144531-3.363281-7.503906-7.507812-7.503906s-7.503906 3.359375-7.503906 7.503906v13.140625c0 4.144531 3.359375 7.503906 7.503906 7.503906s7.507812-3.359375 7.507812-7.503906zm0 0"/><path d="m256.003906 222.859375c9.148438 0 17.738282-3.824219 23.566406-10.492187 2.730469-3.121094 2.410157-7.863282-.710937-10.589844-3.117187-2.730469-7.863281-2.410156-10.589844.710937-2.980469 3.40625-7.449219 5.359375-12.265625 5.359375s-9.289062-1.953125-12.265625-5.359375c-2.730469-3.121093-7.472656-3.441406-10.59375-.710937-3.121093 2.726562-3.4375 7.46875-.710937 10.589844 5.832031 6.667968 14.421875 10.492187 23.570312 10.492187zm0 0"/><path d="m405.464844 346.410156c4.144531 0 7.503906-3.363281 7.503906-7.507812v-33.863282h33.863281c4.144531 0 7.507813-3.359374 7.507813-7.503906 0-4.148437-3.363282-7.507812-7.507813-7.507812h-33.863281v-33.863282c0-4.144531-3.359375-7.503906-7.503906-7.503906-4.144532 0-7.507813 3.359375-7.507813 7.503906v33.863282h-33.859375c-4.148437 0-7.507812 3.359375-7.507812 7.507812 0 4.144532 3.359375 7.503906 7.507812 7.503906h33.859375v33.863282c0 4.144531 3.363281 7.507812 7.507813 7.507812zm0 0"/><path d="m112.167969 320.253906s-23.886719 139.289063-23.960938 139.714844c-3.515625 20.488281 19.03125 36.75 37.335938 27.128906l125.472656-65.964844c3.121094-1.644531 6.851563-1.644531 9.976563 0 0 0 125.277343 65.863282 125.472656 65.964844 18.53125 9.742188 40.871094-6.519531 37.335937-27.125l-12.644531-73.722656c16.464844-1.042969 32.167969-6.578125 45.710938-16.195312 3.382812-2.398438 4.175781-7.085938 1.777343-10.464844-2.402343-3.378906-7.085937-4.175782-10.46875-1.773438-17.550781 12.460938-40.183593 16.554688-61.023437 11.316406-.117188-.03125-.234375-.0625-.351563-.09375-31.839843-8.214843-55.234375-38.628906-55.234375-71.503906 0-38.171875 31.96875-71.847656 70.097656-73.800781 38.351563-1.964844 73.59375 28.621094 77.351563 66.777344 1.648437 16.757812-2.667969 33.875-11.988281 47.890625-2.296875 3.449218-1.363282 8.109375 2.089844 10.40625 3.453124 2.296875 8.109374 1.359375 10.40625-2.089844 9.714843-14.601562 14.847656-31.609375 14.847656-49.1875 0-21.335938-7.558594-40.941406-20.136719-56.28125 0 0 30.152344-29.394531 30.195313-29.433594 14.996093-14.617187 6.394531-40.886718-14.261719-43.890625l-140.285157-20.382812c-3.492187-.507813-6.507812-2.699219-8.070312-5.863281 0 0-62.648438-126.941407-62.734375-127.121094-9.265625-18.765625-36.910156-18.726563-46.152344 0l-32.292969 65.429687c-1.832031 3.714844-.308593 8.21875 3.410157 10.050781 3.71875 1.835938 8.21875.308594 10.054687-3.40625 0 0 32.128906-65.097656 32.289063-65.429687 3.875-7.851563 15.363281-7.824219 19.226562 0l62.738281 127.117187c3.746094 7.597657 10.992188 12.859376 19.375 14.078126 0 0 139.742188 20.304687 140.28125 20.382812 8.664063 1.261719 12.203126 12.183594 5.941407 18.285156l-30.148438 29.390625c-11.632812-10.164062-25.480469-16.980469-40.414062-20.015625-.019531-.003906-.042969-.011718-.0625-.015625-5.867188-1.210937-11.875-1.800781-17.859375-1.800781-49.027344 0-88.910156 39.882812-88.910156 88.90625 0 41.25 30.449218 78.632812 70.777343 87.042969 2.820313.589843 5.671875 1.039062 8.535157 1.347656 0 0 13.089843 76.320313 13.136718 76.585937 1.476563 8.625-7.820312 15.371094-15.554687 11.300782l-125.472657-65.964844c-7.496093-3.941406-16.449218-3.941406-23.949218 0 0 0-124.910156 65.671875-125.472656 65.964844-7.742188 4.070312-17.027344-2.710938-15.554688-11.296875l23.964844-139.71875c1.433594-8.347657-1.335938-16.863281-7.402344-22.777344 0 0-101.121094-98.570313-101.507812-98.945313-6.285157-6.125-2.691407-17.03125 5.941406-18.289062l140.28125-20.382812c8.382812-1.21875 15.628906-6.480469 19.375-14.074219l17.246094-34.949219c1.835937-3.71875.308593-8.21875-3.40625-10.050781-3.722657-1.835938-8.21875-.308594-10.054688 3.40625l-17.246094 34.949219c-1.5625 3.164062-4.578125 5.355468-8.070312 5.863281 0 0-140.082032 20.355469-140.285156 20.382812-20.691407 3.007813-29.253907 29.28125-14.261719 43.894531l101.511719 98.945313c2.527343 2.464844 3.679687 6.011719 3.082031 9.488281zm0 0"/></svg>