<svg height="512pt" viewBox="-10 0 512 512" width="512pt" xmlns="http://www.w3.org/2000/svg"><path d="m355.273438 504.5h-289.542969c-32.160157 0-58.230469-26.070312-58.230469-58.230469v-380.539062c0-32.160157 26.070312-58.230469 58.230469-58.230469h289.542969c32.160156 0 58.226562 26.070312 58.226562 58.226562v380.542969c0 32.160157-26.070312 58.230469-58.226562 58.230469zm0 0" fill="#ff899f"/><path d="m204.304688 446.273438v-380.542969c0-32.160157 26.070312-58.230469 58.230468-58.230469h-196.804687c-32.160157 0-58.230469 26.070312-58.230469 58.230469v380.542969c0 32.15625 26.070312 58.226562 58.230469 58.226562h196.804687c-32.160156 0-58.230468-26.070312-58.230468-58.226562zm0 0" fill="#ff5f7f"/><path d="m94.425781 7.5h-28.695312c-32.160157 0-58.230469 26.070312-58.230469 58.226562v380.542969c0 32.160157 26.070312 58.230469 58.230469 58.230469h28.695312zm0 0" fill="#6a829a"/><path d="m315.175781 235h-126.925781c-21.132812 0-38.265625-17.132812-38.265625-38.265625v-82.71875c0-21.132813 17.132813-38.265625 38.265625-38.265625h126.925781c21.132813 0 38.265625 17.132812 38.265625 38.265625v82.71875c0 21.132813-17.132812 38.265625-38.265625 38.265625zm0 0" fill="#b5e9f1"/><path d="m188.25 75.75c-21.132812 0-38.265625 17.132812-38.265625 38.265625v82.71875c0 21.132813 17.132813 38.265625 38.265625 38.265625h16.054688v-159.25zm0 0" fill="#81d9e7"/><path d="m350.175781 378.773438-19.140625 3.519531c-11.007812 2.027343-20.636718-7.601563-18.609375-18.609375l3.519531-19.136719c1.132813-6.148437 4.105469-11.804687 8.523438-16.222656l109.542969-109.542969c11.578125-11.578125 30.347656-11.578125 41.925781 0s11.578125 30.351562 0 41.925781l-109.542969 109.546875c-4.417969 4.417969-10.074219 7.386719-16.21875 8.519532zm0 0" fill="#f9ee80"/><path d="m456.070312 283.261719-44.613281-44.613281c-5.855469-5.859376-5.855469-15.355469 0-21.210938 5.859375-5.859375 15.355469-5.859375 21.214844 0l44.609375 44.609375c5.859375 5.859375 5.859375 15.355469 0 21.214844-5.855469 5.855469-15.355469 5.855469-21.210938 0zm0 0" fill="#6a829a"/><path d="m328.035156 324.757812-3.570312 3.566407c-4.417969 4.417969-7.390625 10.074219-8.519532 16.222656l-3.519531 19.136719c-2.027343 11.007812 7.597657 20.636718 18.605469 18.609375l19.140625-3.519531c6.144531-1.132813 11.804687-4.101563 16.222656-8.523438l3.566407-3.566406zm0 0" fill="#6a829a"/><path d="m400.53125 341.929688c-7.039062-7.039063-7.039062-18.453126 0-25.492188l42.21875-42.21875c7.039062-7.039062 18.453125-7.039062 25.492188 0 7.039062 7.039062 7.039062 18.453125 0 25.492188l-42.21875 42.21875c-7.039063 7.039062-18.453126 7.039062-25.492188 0zm0 0" fill="#a7b6c5"/><path d="m299.121094 140.265625c-4.144532 0-7.5 3.355469-7.5 7.5v12.449219c0 4.140625 3.355468 7.5 7.5 7.5 4.140625 0 7.5-3.359375 7.5-7.5v-12.449219c0-4.144531-3.359375-7.5-7.5-7.5zm0 0"/><path d="m204.304688 140.265625c-4.140626 0-7.5 3.355469-7.5 7.5v12.449219c0 4.140625 3.359374 7.5 7.5 7.5 4.144531 0 7.5-3.359375 7.5-7.5v-12.449219c0-4.144531-3.355469-7.5-7.5-7.5zm0 0"/><path d="m267.222656 150.570312c-1.269531-.832031-6.882812-2.992187-10.386718 2.152344-1.679688 2.46875-4.128907 2.765625-5.121094 2.765625-.996094 0-3.484375-.269531-5.125-2.765625-2.273438-3.460937-6.925782-4.425781-10.386719-2.152344-3.460937 2.277344-4.421875 6.925782-2.148437 10.386719 3.917968 5.96875 10.519531 9.53125 17.660156 9.53125 7.136718 0 13.738281-3.5625 17.660156-9.53125 2.269531-3.460937 1.308594-8.109375-2.152344-10.386719zm0 0"/><path d="m360.941406 196.734375v-82.71875c0-25.234375-20.53125-45.765625-45.765625-45.765625h-126.925781c-25.234375 0-45.765625 20.527344-45.765625 45.765625v82.71875c0 25.234375 20.53125 45.765625 45.765625 45.765625h126.925781c25.234375 0 45.765625-20.53125 45.765625-45.765625zm-203.457031 0v-82.71875c0-16.964844 13.800781-30.765625 30.765625-30.765625h126.925781c16.964844 0 30.765625 13.800781 30.765625 30.765625v82.71875c0 16.964844-13.800781 30.765625-30.765625 30.765625h-126.925781c-16.964844 0-30.765625-13.800781-30.765625-30.765625zm0 0"/><path d="m481.242188 213.476562c-12.808594-12.804687-32.710938-14.277343-47.164063-4.441406-3.964844-2.507812-8.542969-3.644531-13.078125-3.429687v-139.875c0-36.246094-29.484375-65.730469-65.726562-65.730469h-289.542969c-36.246094 0-65.730469 29.484375-65.730469 65.730469v37.742187c0 4.140625 3.359375 7.5 7.5 7.5 4.144531 0 7.5-3.359375 7.5-7.5v-37.742187c0-27.972657 22.757812-50.730469 50.730469-50.730469h21.195312v482h-21.195312c-27.972657 0-50.730469-22.757812-50.730469-50.726562v-313.46875c0-4.144532-3.359375-7.5-7.5-7.5-4.144531 0-7.5 3.355468-7.5 7.5v313.46875c0 36.242187 29.484375 65.726562 65.730469 65.726562h289.542969c36.242187 0 65.726562-29.484375 65.726562-65.726562v-65.792969c0-4.144531-3.355469-7.5-7.5-7.5-4.140625 0-7.5 3.355469-7.5 7.5v65.789062c0 27.972657-22.757812 50.730469-50.726562 50.730469h-253.347657v-482h253.347657c27.96875 0 50.726562 22.757812 50.726562 50.730469v146.574219c-7.253906 7.40625-8.339844 18.601562-3.285156 27.167968l-83.550782 83.546875c-5.519531 5.519531-9.183593 12.492188-10.59375 20.167969l-3.523437 19.140625c-1.394531 7.597656 1.027344 15.390625 6.488281 20.855469 4.445313 4.441406 13.050782 7.605468 20.855469 6.488281l19.140625-3.523437c7.675781-1.410157 14.648438-5.074219 20.167969-10.589844l26.085937-26.089844c4.429688 3.394531 20.449219 10.304688 33.542969-2.234375l42.21875-42.21875c4.066406-4.066406 6.582031-9.261719 7.273437-14.882813.613282-.496093 12.949219-12.902343 4.863282-29.496093 9.839844-14.449219 8.363281-34.355469-4.441406-47.160157zm-10.605469 10.609376c6.769531 6.769531 8.207031 16.859374 4.359375 25.066406l-29.429688-29.429688c8.207032-3.847656 18.296875-2.410156 25.070313 4.363282zm-43.269531-1.347657s44.976562 44.996094 45.140624 45.199219c-4.6875-4.199219-13.59375-8.878906-26.015624-4.863281l-29.730469-29.730469c-2.921875-2.921875-2.921875-7.683594 0-10.605469 2.925781-2.921875 7.683593-2.925781 10.605469 0zm-38.378907 114.3125-19.027343 19.027344-31.320313-31.320313 74.160156-74.160156 21.480469 21.484375-39.050781 39.054688c-11.5 11.199219-7.050781 23.40625-6.242188 25.914062zm-40.171875 34.347657-19.140625 3.519531c-2.785156.511719-5.53125-.34375-7.53125-2.34375-2.003906-2.003907-2.855469-4.75-2.34375-7.53125l3.519531-19.140625c.710938-3.859375 2.371094-7.417969 4.816407-10.4375l31.117187 31.117187c-3.019531 2.445313-6.578125 4.105469-10.4375 4.816407zm114.121094-76.992188-42.21875 42.21875c-1.988281 1.988281-9.371094 5.667969-14.882812.003906-5.515626-5.667968-1.988282-12.902344 0-14.886718l42.21875-42.21875c1.984374-1.988282 9.101562-5.882813 14.882812 0 5.78125 5.882812 1.992188 12.898437 0 14.882812zm0 0"/></svg>