<svg height="512pt" viewBox="0 -102 512.00021 512" width="512pt" xmlns="http://www.w3.org/2000/svg"><path d="m215.320312 33.488281c0-21.308593-24.257812-33.5429685-41.394531-20.875l-151.5 112.007813c-19.902343 14.710937-19.902343 44.476562 0 59.1875l151.5 112.003906c17.136719 12.667969 41.394531.4375 41.394531-20.875 0 0-4.015624-30.328125 20.667969-35.132812 57.804688-11.246094 162.566407-17.050782 233.3125 54.726562 13.820313 14.019531 37.457031 2.734375 35.03125-16.800781-9.707031-78.078125-58.414062-200.785157-265.859375-219.15625-25.589844-2.269531-23.152344-25.085938-23.152344-25.085938zm0 0" fill="#abebf4"/><path d="m215.320312 192.402344v73.011718c.929688-9.328124 5.054688-22.570312 20.667969-25.609374 57.804688-11.246094 162.566407-17.050782 233.3125 54.726562 13.820313 14.019531 37.457031 2.734375 35.03125-16.800781-68.523437-113.84375-197.503906-121.855469-257.203125-118.835938-17.832031.898438-31.808594 15.65625-31.808594 33.507813zm0 0" fill="#8ed7e8"/><path d="m511.773438 276.804688c-4.597657-37-18.863282-90.652344-60.699219-136.121094-47.070313-51.15625-118.378907-81.292969-211.941407-89.582032-7.574218-.671874-15.527343-3.839843-16.3125-17.609374-.71875-12.6875-7.046874-24.15625-18.390624-29.878907-11.347657-5.722656-24.742188-4.585937-34.960938 2.972657l-32.800781 24.25c-3.332031 2.460937-4.035157 7.15625-1.574219 10.488281 2.464844 3.328125 7.15625 4.035156 10.492188 1.574219l32.800781-24.253907c5.726562-4.230469 12.933593-4.84375 19.289062-1.640625 6.265625 3.164063 10.042969 9.199219 10.144531 16.195313-.191406 2.625-.4375 13.042969 6.726563 21.757812 5.308594 6.457031 13.132813 10.191407 23.261719 11.085938 89.726562 7.945312 157.765625 36.476562 202.226562 84.796875 39.148438 42.542968 52.523438 92.988281 56.855469 127.816406.84375 6.8125-3.148437 11.320312-7.164063 13.265625-4.082031 1.976563-10.1875 2.3125-15.082031-2.65625-32.386719-32.855469-74.707031-53.261719-125.777343-60.652344-44.847657-6.492187-86.917969-1.496093-114.3125 3.832031-4.613282.898438-8.488282 2.503907-11.730469 4.609376v-35.171876c0-4.144531-3.359375-7.5-7.5-7.5-4.144531 0-7.5 3.355469-7.5 7.5 0 0-.375 70.351563-.007813 73.484376-.148437 6.933593-3.914062 12.914062-10.140625 16.054687-6.355469 3.203125-13.566406 2.59375-19.289062-1.640625l-151.503907-112.003906c-7.550781-5.582032-11.882812-14.171875-11.882812-23.5625 0-9.394532 4.332031-17.980469 11.882812-23.5625l91.648438-67.757813c3.328125-2.460937 4.035156-7.15625 1.570312-10.488281-2.460937-3.328125-7.15625-4.035156-10.488281-1.574219l-91.644531 67.757813c-11.417969 8.441406-17.96875 21.425781-17.96875 35.625 0 14.195312 6.550781 27.183594 17.964844 35.625l151.503906 112.003906c5.898438 4.359375 19.476562 10.917969 34.960938 2.96875 11.304687-5.800781 18.390624-17.167969 18.390624-29.875 0-.3125-2.179687-24.253906 14.601563-27.769531 26.175781-5.480469 66.527344-9.898438 109.296875-3.710938 47.757812 6.910157 87.203125 25.867188 117.242188 56.339844 8.621093 8.746094 21.296874 10.957031 32.304687 5.625 10.925781-5.289063 17.011719-16.523437 15.507813-28.617187zm0 0"/></svg>