<svg height="511pt" viewBox="0 -104 511.99967 511" width="511pt" xmlns="http://www.w3.org/2000/svg"><path d="m214.09375 27.292969c0-21.953125-24.992188-34.558594-42.644531-21.507813l-156.074219 115.386719c-20.5 15.15625-20.5 45.816406 0 60.972656l156.074219 115.386719c17.652343 13.050781 42.644531.445312 42.644531-21.507812 0 0-4.140625-31.242188 21.289062-36.191407 59.550782-11.585937 167.46875-17.5625 240.351563 56.375 14.234375 14.445313 38.589844 2.820313 36.085937-17.304687-9.996093-80.433594-60.171874-206.84375-273.878906-225.769532-26.363281-2.335937-23.847656-25.839843-23.847656-25.839843zm0 0" fill="#abebf4"/><path d="m214.09375 191v75.214844c.953125-9.609375 5.203125-23.25 21.289062-26.382813 59.550782-11.585937 167.46875-17.5625 240.351563 56.375 14.234375 14.445313 38.589844 2.820313 36.085937-17.304687-70.589843-117.277344-203.460937-125.53125-264.960937-122.421875-18.367187.929687-32.765625 16.125-32.765625 34.519531zm0 0" fill="#8ed7e8"/></svg>